<svg width="98" height="98" viewBox="0 0 98 98" fill="none" xmlns="http://www.w3.org/2000/svg">
<path d="M97.3106 28.7398C97.0831 23.5801 96.2488 20.0329 95.0535 16.9591C93.8204 13.6964 91.9234 10.7754 89.4381 8.34704C87.0098 5.88094 84.0694 3.96468 80.8445 2.75089C77.753 1.55563 74.2243 0.72125 69.0646 0.493758C63.8664 0.247 62.2161 0.189941 49.032 0.189941C35.8478 0.189941 34.1976 0.247 29.0186 0.474492C23.8589 0.701983 20.3117 1.53711 17.2387 2.73163C13.9752 3.96468 11.0542 5.86168 8.62585 8.34704C6.15975 10.7754 4.24423 13.7157 3.0297 16.9406C1.83444 20.0329 1.00006 23.5608 0.772566 28.7205C0.525808 33.9188 0.46875 35.569 0.46875 48.7532C0.46875 61.9373 0.525808 63.5876 0.7533 68.7665C0.980792 73.9262 1.81592 77.4735 3.01118 80.5472C4.24423 83.8099 6.15975 86.731 8.62585 89.1593C11.0542 91.6254 13.9945 93.5416 17.2194 94.7554C20.3117 95.9507 23.8397 96.7851 29.0001 97.0126C34.1783 97.2408 35.8293 97.2971 49.0134 97.2971C62.1976 97.2971 63.8478 97.2408 69.0268 97.0126C74.1865 96.7851 77.7337 95.9507 80.8067 94.7554C87.3329 92.2323 92.4925 87.0726 95.0157 80.5472C96.2102 77.4549 97.0454 73.9262 97.2728 68.7665C97.5003 63.5876 97.5574 61.9373 97.5574 48.7532C97.5574 35.569 97.5381 33.9188 97.3106 28.7398ZM88.5659 68.3871C88.3569 73.1296 87.5603 75.6906 86.8964 77.3979C85.2647 81.6283 81.9071 84.9859 77.6767 86.6176C75.9694 87.2815 73.3899 88.0781 68.6659 88.2864C63.544 88.5146 62.0079 88.5709 49.0512 88.5709C36.0946 88.5709 34.5392 88.5146 29.4358 88.2864C24.6933 88.0781 22.1323 87.2815 20.425 86.6176C18.3198 85.8395 16.4036 84.6065 14.8482 82.994C13.2357 81.4194 12.0027 79.5224 11.2246 77.4171C10.5606 75.7098 9.76405 73.1296 9.55583 68.4064C9.3276 63.2845 9.27128 61.7476 9.27128 48.791C9.27128 35.8343 9.3276 34.2789 9.55583 29.1763C9.76405 24.4338 10.5606 21.8728 11.2246 20.1655C12.0027 18.0595 13.2357 16.144 14.8674 14.5879C16.4413 12.9754 18.3383 11.7424 20.4443 10.9651C22.1516 10.3011 24.7318 9.50451 29.4551 9.29555C34.577 9.06805 36.1138 9.011 49.0698 9.011C62.0457 9.011 63.5818 9.06805 68.6852 9.29555C73.4277 9.50451 75.9886 10.3011 77.6959 10.9651C79.8012 11.7424 81.7174 12.9754 83.2728 14.5879C84.8853 16.1625 86.1183 18.0595 86.8964 20.1655C87.5603 21.8728 88.3569 24.4523 88.5659 29.1763C88.7934 34.2982 88.8505 35.8343 88.8505 48.791C88.8505 61.7476 88.7934 63.2652 88.5659 68.3871Z" fill="white"/>
<path d="M49.031 23.8076C35.2592 23.8076 24.0854 34.9807 24.0854 48.7532C24.0854 62.5257 35.2592 73.6987 49.031 73.6987C62.8035 73.6987 73.9766 62.5257 73.9766 48.7532C73.9766 34.9807 62.8035 23.8076 49.031 23.8076ZM49.031 64.9347C40.0966 64.9347 32.8494 57.6883 32.8494 48.7532C32.8494 39.818 40.0966 32.5716 49.031 32.5716C57.9662 32.5716 65.2126 39.818 65.2126 48.7532C65.2126 57.6883 57.9662 64.9347 49.031 64.9347V64.9347Z" fill="white"/>
<path d="M80.7877 22.8214C80.7877 26.0375 78.18 28.6451 74.9633 28.6451C71.7473 28.6451 69.1396 26.0375 69.1396 22.8214C69.1396 19.6047 71.7473 16.9978 74.9633 16.9978C78.18 16.9978 80.7877 19.6047 80.7877 22.8214V22.8214Z" fill="white"/>
</svg>
