<svg width="28" height="29" viewBox="0 0 28 29" fill="none" xmlns="http://www.w3.org/2000/svg">
<path d="M26.0666 22.3244C26.0666 18.362 20.7128 15.1493 14.1081 15.1493C7.50338 15.1493 2.14954 18.362 2.14954 22.3244" stroke="white" stroke-width="2.83472" stroke-linecap="round"/>
<path fill-rule="evenodd" clip-rule="evenodd" d="M14.1081 15.1544C17.7405 15.1544 20.6853 12.2096 20.6853 8.57721C20.6853 4.94479 17.7405 2 14.1081 2C10.4757 2 7.53088 4.94479 7.53088 8.57721C7.53088 12.2096 10.4757 15.1544 14.1081 15.1544V15.1544Z" stroke="white" stroke-width="2.83472" stroke-linecap="round"/>
<path d="M25.9171 22.3243V26.2497C25.9171 26.6001 25.7981 27.1078 25.4513 27.1078H2.76475C2.42513 27.1078 2 26.5959 2 26.2497V22.3243" stroke="white" stroke-width="2.83472" stroke-linecap="round"/>
</svg>
