<svg width="34" height="19" viewBox="0 0 34 19" fill="none" xmlns="http://www.w3.org/2000/svg">
<path d="M17 14.3971C17 11.9274 13.6631 9.92505 9.5466 9.92505C5.43009 9.92505 2.0932 11.9274 2.0932 14.3971" stroke="white" stroke-width="2.83472" stroke-linecap="round"/>
<path fill-rule="evenodd" clip-rule="evenodd" d="M9.54658 9.92824C11.8105 9.92824 13.6459 8.09284 13.6459 5.82886C13.6459 3.56489 11.8105 1.72949 9.54658 1.72949C7.28261 1.72949 5.4472 3.56489 5.4472 5.82886C5.4472 8.09284 7.28261 9.92824 9.54658 9.92824V9.92824Z" stroke="white" stroke-width="2.83472" stroke-linecap="round"/>
<path d="M16.9068 14.397V16.8436C16.9068 17.062 16.8326 17.3784 16.6165 17.3784H2.47665C2.26497 17.3784 2 17.0594 2 16.8436V14.397" stroke="white" stroke-width="2.83472" stroke-linecap="round"/>
<path d="M32 14.3971C32 11.9274 28.6631 9.92505 24.5466 9.92505C20.4301 9.92505 17.0932 11.9274 17.0932 14.3971" stroke="white" stroke-width="2.83472" stroke-linecap="round"/>
<path fill-rule="evenodd" clip-rule="evenodd" d="M24.5466 9.92824C26.8105 9.92824 28.6459 8.09284 28.6459 5.82886C28.6459 3.56489 26.8105 1.72949 24.5466 1.72949C22.2826 1.72949 20.4472 3.56489 20.4472 5.82886C20.4472 8.09284 22.2826 9.92824 24.5466 9.92824V9.92824Z" stroke="white" stroke-width="2.83472" stroke-linecap="round"/>
<path d="M31.9068 14.397V16.8436C31.9068 17.062 31.8326 17.3784 31.6165 17.3784H17.4766C17.265 17.3784 17 17.0594 17 16.8436V14.397" stroke="white" stroke-width="2.83472" stroke-linecap="round"/>
</svg>
