<svg width="98" height="80" viewBox="0 0 98 80" fill="none" xmlns="http://www.w3.org/2000/svg">
<path d="M97.2975 9.48039C93.6793 11.0676 89.8238 12.1196 85.8042 12.6304C89.9394 10.1615 93.0955 6.28173 94.5793 1.60537C90.7238 3.90402 86.4671 5.52768 81.9306 6.43376C78.2698 2.53578 73.0522 0.121582 67.3603 0.121582C56.317 0.121582 47.4265 9.08511 47.4265 20.0737C47.4265 21.6547 47.5602 23.175 47.8886 24.6223C31.3055 23.8135 16.6318 15.8655 6.77434 3.75808C5.05339 6.74389 4.04393 10.1615 4.04393 13.8405C4.04393 20.7487 7.60137 26.8723 12.9041 30.4176C9.69935 30.3568 6.55542 29.4264 3.8919 27.9608C3.8919 28.0216 3.8919 28.1007 3.8919 28.1797C3.8919 37.873 10.8061 45.9244 19.873 47.7791C18.2494 48.223 16.4798 48.4359 14.6433 48.4359C13.3662 48.4359 12.0771 48.3629 10.8669 48.0953C13.4514 55.9947 20.7852 61.8021 29.5055 61.9906C22.719 67.2994 14.1021 70.4981 4.77366 70.4981C3.13784 70.4981 1.56892 70.4251 0 70.2244C8.83583 75.9224 19.3075 79.1758 30.6001 79.1758C67.3056 79.1758 87.3732 48.7703 87.3732 22.4149C87.3732 21.5331 87.3428 20.6818 87.3002 19.8365C91.259 17.027 94.5853 13.5182 97.2975 9.48039Z" fill="white"/>
</svg>
